<svg width="22" height="22" viewBox="0 0 22 22" fill="none" xmlns="http://www.w3.org/2000/svg">
<g clip-path="url(#clip0_21_32)">
<path d="M9.62496 19.25H5.49996C5.01373 19.25 4.54741 19.0568 4.2036 18.713C3.85978 18.3692 3.66663 17.9029 3.66663 17.4166V6.41665C3.66663 5.93042 3.85978 5.4641 4.2036 5.12028C4.54741 4.77647 5.01373 4.58331 5.49996 4.58331H16.5C16.9862 4.58331 17.4525 4.77647 17.7963 5.12028C18.1401 5.4641 18.3333 5.93042 18.3333 6.41665V9.16665" stroke="#20232B" stroke-width="1.83333" stroke-linecap="round" stroke-linejoin="round"/>
<path d="M14.6666 2.75V6.41667" stroke="#20232B" stroke-width="1.83333" stroke-linecap="round" stroke-linejoin="round"/>
<path d="M7.33337 2.75V6.41667" stroke="#20232B" stroke-width="1.83333" stroke-linecap="round" stroke-linejoin="round"/>
<path d="M3.66663 10.0833H12.8333" stroke="#20232B" stroke-width="1.83333" stroke-linecap="round" stroke-linejoin="round"/>
<path d="M12.8334 16.5C12.8334 17.4724 13.2197 18.4051 13.9073 19.0927C14.5949 19.7803 15.5276 20.1666 16.5 20.1666C17.4725 20.1666 18.4051 19.7803 19.0928 19.0927C19.7804 18.4051 20.1667 17.4724 20.1667 16.5C20.1667 15.5275 19.7804 14.5949 19.0928 13.9073C18.4051 13.2196 17.4725 12.8333 16.5 12.8333C15.5276 12.8333 14.5949 13.2196 13.9073 13.9073C13.2197 14.5949 12.8334 15.5275 12.8334 16.5Z" stroke="#20232B" stroke-width="1.83333" stroke-linecap="round" stroke-linejoin="round"/>
<path d="M16.5 15.125V16.5L16.9583 16.9583" stroke="#20232B" stroke-width="1.83333" stroke-linecap="round" stroke-linejoin="round"/>
</g>
<defs>
<clipPath id="clip0_21_32">
<rect width="22" height="22" fill="white"/>
</clipPath>
</defs>
</svg>
