<svg xmlns="http://www.w3.org/2000/svg" width="16" height="21" viewBox="0 0 16 21" fill="none">
                                    <g clip-path="url(#clip0_94_705)">
                                        <path d="M8.00262 16.8233C7.41576 16.1353 6.86625 15.5103 6.33274 14.8643C4.97228 13.2046 3.67585 11.4977 2.66751 9.60168C2.25138 8.81912 1.87258 8.01554 1.74454 7.13319C1.56848 5.9147 1.85124 4.76975 2.4221 3.69307C3.61716 1.45042 6.05531 0.184663 8.67485 0.431512C11.1503 0.662604 13.3164 2.45357 14.0473 4.82752C14.5115 6.35063 14.2554 7.7687 13.5565 9.1605C12.6282 10.9935 11.4384 12.6531 10.158 14.255C9.46978 15.1059 8.74954 15.9357 8.00262 16.8233ZM11.145 6.06702C11.129 4.31281 9.7152 2.94202 7.94394 2.96302C6.2367 2.98403 4.8229 4.39685 4.84424 6.06702C4.86558 7.80546 6.26871 9.16575 8.03464 9.1605C9.73654 9.15 11.161 7.73193 11.145 6.06702Z" fill="#fff"></path>
                                        <path d="M5.50584 14.6857C5.02034 14.7698 4.52418 14.838 4.04401 14.9378C3.1904 15.1164 2.34745 15.3422 1.60053 15.8044C1.37646 15.941 1.17372 16.1196 1.003 16.3139C0.757586 16.5975 0.757586 16.9441 1.003 17.2277C1.18439 17.4326 1.40847 17.6217 1.64855 17.7635C2.46482 18.2362 3.37179 18.4672 4.29476 18.6196C7.12237 19.0922 9.94465 19.0922 12.7349 18.378C13.3271 18.2256 13.8873 17.9315 14.4582 17.7004C14.5062 17.6794 14.5489 17.6427 14.5915 17.6112C15.3598 17.0807 15.3705 16.4819 14.6075 15.9357C13.898 15.4263 13.0657 15.1847 12.2227 14.9956C11.6519 14.8696 11.0757 14.7803 10.4088 14.6542C10.5422 14.5807 10.6169 14.4914 10.6916 14.4967C12.068 14.5964 13.4445 14.7015 14.7196 15.274C15.029 15.4105 15.3224 15.6206 15.5625 15.8569C16.0427 16.3244 16.1227 16.9809 15.8186 17.5744C15.6052 17.9998 15.2744 18.3254 14.8903 18.6038C13.8019 19.3811 12.5589 19.796 11.2624 20.0534C8.54685 20.5943 5.85262 20.4998 3.21174 19.6385C2.36345 19.3601 1.54718 19.0082 0.880293 18.4042C0.592197 18.1469 0.330777 17.8265 0.154718 17.4851C-0.160053 16.8601 0.0213404 16.1983 0.554852 15.7309C1.09903 15.2582 1.76059 15.0166 2.45415 14.8906C3.37179 14.7225 4.3001 14.6227 5.22307 14.5019C5.31911 14.4914 5.42581 14.5544 5.53251 14.5859C5.52184 14.6227 5.51117 14.6542 5.50584 14.6857Z" fill="#fff"></path>
                                    </g>
                                    <defs>
                                        <clipPath id="clip0_94_705">
                                            <rect width="16" height="20" fill="white" transform="translate(0 0.399994)"></rect>
                                        </clipPath>
                                    </defs>
                                </svg>